<svg width="141" height="36" viewBox="0 0 141 36" fill="none" xmlns="http://www.w3.org/2000/svg">
<path fill-rule="evenodd" clip-rule="evenodd" d="M27.8333 18C27.8333 25.0877 22.0877 30.8333 15 30.8333C7.91234 30.8333 2.16666 25.0877 2.16666 18C2.16666 10.9123 7.91234 5.16666 15 5.16666C22.0877 5.16666 27.8333 10.9123 27.8333 18ZM30 18C30 26.2843 23.2843 33 15 33C6.71573 33 0 26.2843 0 18C0 9.71573 6.71573 3 15 3C23.2843 3 30 9.71573 30 18ZM23.2759 11.2759C23.2759 12.1329 22.5812 12.8276 21.7242 12.8276C20.8672 12.8276 20.1725 12.1329 20.1725 11.2759C20.1725 10.4189 20.8672 9.72418 21.7242 9.72418C22.5812 9.72418 23.2759 10.4189 23.2759 11.2759ZM10.4879 19.209C11.1556 21.7009 13.717 23.1797 16.2089 22.512C18.7008 21.8443 20.1796 19.2829 19.5119 16.791C18.8442 14.2991 16.2828 12.8203 13.7909 13.488C11.299 14.1557 9.82015 16.7171 10.4879 19.209ZM8.39503 19.7698C9.37244 23.4175 13.1219 25.5823 16.7696 24.6049C20.4174 23.6274 22.5821 19.878 21.6047 16.2302C20.6273 12.5825 16.8779 10.4177 13.2301 11.3952C9.58236 12.3726 7.41762 16.122 8.39503 19.7698Z" fill="url(#paint0_linear_1_118)"/>
<path d="M46.7087 28.3958C45.3515 28.3958 44.1168 28.0942 43.0047 27.4911C41.9114 26.869 41.0348 25.9736 40.3751 24.8049C39.7342 23.6174 39.4137 22.1754 39.4137 20.4789V15.7287C39.4137 13.184 40.13 11.233 41.5626 9.87579C42.9952 8.49975 44.9368 7.81172 47.3873 7.81172C49.8189 7.81172 51.6945 8.46205 53.014 9.76269C54.3523 11.0445 55.0215 12.7881 55.0215 14.9935V15.1066H51.3458V14.8804C51.3458 14.183 51.195 13.5515 50.8934 12.986C50.6106 12.4205 50.1771 11.9776 49.5927 11.6571C49.0084 11.3178 48.2732 11.1482 47.3873 11.1482C46.0678 11.1482 45.031 11.5534 44.277 12.364C43.523 13.1745 43.146 14.2772 43.146 15.6721V20.5354C43.146 21.9115 43.523 23.0236 44.277 23.8719C45.031 24.7013 46.0866 25.116 47.4438 25.116C48.801 25.116 49.7906 24.7578 50.4127 24.0415C51.0347 23.3252 51.3458 22.4204 51.3458 21.3271V21.0444H46.6521V17.8776H55.0215V28H51.572V26.1056H51.063C50.9311 26.426 50.7143 26.7653 50.4127 27.1235C50.1299 27.4816 49.6964 27.7832 49.112 28.0283C48.5277 28.2733 47.7266 28.3958 46.7087 28.3958ZM57.8521 28V13.9757H61.3582V15.559H61.8671C62.0745 14.9935 62.4138 14.5788 62.885 14.3149C63.3751 14.0511 63.9406 13.9191 64.5815 13.9191H66.278V17.0859H64.5249C63.6201 17.0859 62.8756 17.3309 62.2912 17.821C61.7069 18.2923 61.4147 19.0274 61.4147 20.0265V28H57.8521ZM72.2374 28.3958C71.2383 28.3958 70.3429 28.2262 69.5513 27.8869C68.7596 27.5288 68.1281 27.0198 67.6568 26.3601C67.2044 25.6815 66.9782 24.8615 66.9782 23.9001C66.9782 22.9388 67.2044 22.1377 67.6568 21.4968C68.1281 20.837 68.769 20.3469 69.5795 20.0265C70.4089 19.6872 71.3514 19.5175 72.407 19.5175H76.2524V18.7258C76.2524 18.0661 76.0451 17.5289 75.6304 17.1142C75.2157 16.6806 74.5559 16.4638 73.6511 16.4638C72.7652 16.4638 72.1054 16.6712 71.6719 17.0859C71.2383 17.4817 70.9556 18.0001 70.8236 18.641L67.5437 17.5383C67.7699 16.822 68.1281 16.1717 68.6182 15.5873C69.1271 14.9841 69.7963 14.5034 70.6257 14.1453C71.4739 13.7683 72.5013 13.5798 73.7077 13.5798C75.555 13.5798 77.0158 14.0416 78.0903 14.9653C79.1647 15.8889 79.7019 17.2273 79.7019 18.9803V24.2112C79.7019 24.7767 79.9658 25.0594 80.4936 25.0594H81.6246V28H79.2495C78.5521 28 77.9772 27.8304 77.5248 27.4911C77.0724 27.1518 76.8462 26.6994 76.8462 26.1339V26.1056H76.309C76.2336 26.3318 76.0639 26.6334 75.8 27.0104C75.5361 27.3685 75.1214 27.689 74.5559 27.9717C73.9904 28.2545 73.2176 28.3958 72.2374 28.3958ZM72.8594 25.5118C73.8585 25.5118 74.669 25.2385 75.2911 24.6918C75.932 24.1263 76.2524 23.3818 76.2524 22.4581V22.1754H72.6615C72.0017 22.1754 71.4834 22.3167 71.1064 22.5995C70.7294 22.8822 70.5409 23.2781 70.5409 23.787C70.5409 24.296 70.7388 24.7107 71.1346 25.0311C71.5305 25.3516 72.1054 25.5118 72.8594 25.5118ZM83.3812 28V13.9757H86.8873V15.5025H87.3962C87.6413 15.0312 88.0466 14.626 88.6121 14.2867C89.1776 13.9285 89.9221 13.7495 90.8458 13.7495C91.8448 13.7495 92.646 13.9474 93.2491 14.3432C93.8523 14.7202 94.3142 15.2197 94.6346 15.8418H95.1436C95.464 15.2386 95.9164 14.7391 96.5008 14.3432C97.0851 13.9474 97.9145 13.7495 98.989 13.7495C99.856 13.7495 100.638 13.938 101.336 14.3149C102.052 14.6731 102.618 15.2292 103.032 15.9832C103.466 16.7183 103.683 17.6514 103.683 18.7824V28H100.12V19.0369C100.12 18.264 99.922 17.6891 99.5262 17.3121C99.1303 16.9162 98.5743 16.7183 97.858 16.7183C97.0474 16.7183 96.4159 16.9822 95.9635 17.51C95.53 18.019 95.3132 18.7541 95.3132 19.7155V28H91.7506V19.0369C91.7506 18.264 91.5527 17.6891 91.1568 17.3121C90.761 16.9162 90.2049 16.7183 89.4886 16.7183C88.678 16.7183 88.0466 16.9822 87.5942 17.51C87.1606 18.019 86.9438 18.7541 86.9438 19.7155V28H83.3812ZM106.666 28V13.9757H110.229V28H106.666ZM108.447 12.3357C107.806 12.3357 107.26 12.1284 106.807 11.7137C106.374 11.299 106.157 10.7523 106.157 10.0737C106.157 9.39512 106.374 8.84847 106.807 8.43377C107.26 8.01907 107.806 7.81172 108.447 7.81172C109.107 7.81172 109.654 8.01907 110.087 8.43377C110.521 8.84847 110.738 9.39512 110.738 10.0737C110.738 10.7523 110.521 11.299 110.087 11.7137C109.654 12.1284 109.107 12.3357 108.447 12.3357ZM115.647 28V16.9162H112.084V13.9757H115.647V11.3744C115.647 10.413 115.93 9.64959 116.495 9.08409C117.079 8.49975 117.833 8.20757 118.757 8.20757H122.433V11.1482H120.001C119.473 11.1482 119.209 11.4309 119.209 11.9964V13.9757H122.885V16.9162H119.209V28H115.647ZM126.322 33.655V30.5447H133.956C134.484 30.5447 134.748 30.262 134.748 29.6965V26.1621H134.239C134.088 26.4826 133.852 26.803 133.532 27.1235C133.212 27.4439 132.778 27.7078 132.231 27.9152C131.685 28.1225 130.987 28.2262 130.139 28.2262C129.046 28.2262 128.084 27.9812 127.255 27.4911C126.444 26.9821 125.813 26.2847 125.361 25.3987C124.908 24.5128 124.682 23.4949 124.682 22.345V13.9757H128.245V22.0623C128.245 23.1179 128.499 23.9096 129.008 24.4374C129.536 24.9652 130.28 25.2291 131.242 25.2291C132.335 25.2291 133.183 24.8709 133.787 24.1546C134.39 23.4195 134.691 22.4016 134.691 21.1009V13.9757H138.254V30.4882C138.254 31.4495 137.971 32.213 137.406 32.7785C136.84 33.3628 136.086 33.655 135.144 33.655H126.322Z" fill="white"/>
<defs>
<linearGradient id="paint0_linear_1_118" x1="15" y1="3" x2="15" y2="33" gradientUnits="userSpaceOnUse">
<stop stop-color="#877EFF"/>
<stop offset="0.461458" stop-color="#685DFF"/>
<stop offset="1" stop-color="#3121FF"/>
</linearGradient>
</defs>
</svg>
